<?xml version="1.0" encoding="UTF-8"?>
<svg id="Capa_1" data-name="Capa 1" xmlns="http://www.w3.org/2000/svg" viewBox="0 0 3840 1299.78">
  <defs>
    <style>
      .cls-1 {
        fill: #F1C993;
        fill-rule: evenodd;
      }
    </style>
  </defs>
  <path class="cls-1" d="m3840,1299.78H0V0c236.47,190.88,420.27,218.81,542.33,210.75C833.14,191.54,903.46,12.19,1167.71.61c208.17-9.12,308,85.76,471.1,145.08,66.31,24.13,143.08,42.38,241.84,45.38,13.28.4,26.4.52,39.35.35,12.95.17,26.07.05,39.35-.35,98.76-3,175.53-21.25,241.84-45.38C2364.29,86.37,2464.12-8.51,2672.29.61c264.25,11.58,334.57,190.93,625.38,210.14,122.06,8.06,305.86-19.87,542.33-210.75v1299.78Z"/>
</svg>